<svg width="191" height="32" viewBox="0 0 191 32" fill="none" xmlns="http://www.w3.org/2000/svg">
<g filter="url(#filter0_d_0_220)">
<path fill-rule="evenodd" clip-rule="evenodd" d="M119.919 0C119.919 0 119.888 8.28424 119.949 13.8578C119.949 19.736 124.03 23.9999 138.162 23.9999C153.055 23.9999 155.34 18 155.34 14.7715C155.34 11.5431 155.37 0.0304586 155.37 0.0304586H148.822C148.822 0.0304586 148.852 9.4416 148.852 13.6751C148.852 17.9086 146.264 21.5939 139.045 21.5939C131.035 21.5939 129.36 17.4822 129.36 13.6751C129.36 9.89845 129.421 0.0304586 129.421 0.0304586H119.919V0Z" fill="black"/>
<path fill-rule="evenodd" clip-rule="evenodd" d="M157.502 0V23.5735H182.446V20.3756L167.492 20.5888V12.3959L182.111 12.6091L182.081 9.53297L167.492 9.71571V2.83248L182.446 3.01522V0H157.502Z" fill="black"/>
<path fill-rule="evenodd" clip-rule="evenodd" d="M85.7156 3.3807L74.2029 2.98476L74.1725 23.5735H64.3045L64.1522 2.98476L52.335 3.3807L52.3654 0H85.7461L85.7156 3.3807Z" fill="black"/>
<path fill-rule="evenodd" clip-rule="evenodd" d="M4 0.0305176V23.6041H7.95938C7.95938 23.6041 16.8832 3.38076 32.4771 3.38076C32.4771 3.38076 39.939 2.77162 47.1268 13.3706V0.0305176H4Z" fill="#1AA2DC"/>
<path fill-rule="evenodd" clip-rule="evenodd" d="M22.67 23.6041H46.9136C46.9136 23.6041 43.0152 11.4518 34.6091 11.4518C34.6091 11.4518 27.4213 11.1168 22.67 23.6041Z" fill="#1AA2DC"/>
<path fill-rule="evenodd" clip-rule="evenodd" d="M183.969 1.5229C183.969 0.791935 184.517 0.274168 185.218 0.274168C185.918 0.274168 186.436 0.822392 186.436 1.5229C186.436 2.25386 185.888 2.80208 185.218 2.80208C184.517 2.77162 183.969 2.25386 183.969 1.5229ZM185.218 3.04574C186.04 3.04574 186.741 2.40614 186.741 1.5229C186.741 0.670108 186.04 0.0305176 185.218 0.0305176C184.396 0.0305176 183.695 0.670108 183.695 1.5229C183.695 2.40614 184.396 3.04574 185.218 3.04574ZM184.913 1.64472H185.218L185.675 2.40614H185.979L185.492 1.64472C185.736 1.61427 185.949 1.46198 185.949 1.15741C185.949 0.822388 185.736 0.670102 185.34 0.670102H184.67V2.40614H184.944V1.64472H184.913ZM184.913 1.40107V0.852845H185.279C185.462 0.852845 185.675 0.8833 185.675 1.12695C185.675 1.40107 185.462 1.40107 185.248 1.40107H184.913Z" fill="black"/>
<path fill-rule="evenodd" clip-rule="evenodd" d="M108.68 12.5178C108.68 12.5178 108.528 12.396 108.71 12.3655C113.248 11.6346 117.451 9.98988 117.817 6.51781C118.122 1.85792 112.913 0.213251 106.913 0.0609669C105.573 0.0305101 99.817 0.0305176 97.5023 0.0305176H87.5734V23.6041H97.5023V12.8833C97.6241 12.8833 97.8068 12.8833 97.9591 12.8833C98.2637 12.8833 98.3855 13.0356 98.3855 13.0356L110.355 23.6041H123.269L108.68 12.5178ZM97.5327 11.0559V2.07112C97.5327 2.07112 99.7256 2.01021 102.101 2.13203C105.573 2.4366 107.583 3.50259 107.583 6.36552C107.583 11.7259 97.5327 11.0559 97.5327 11.0559Z" fill="black"/>
</g>
<defs>
<filter id="filter0_d_0_220" x="0" y="0" width="190.741" height="32" filterUnits="userSpaceOnUse" color-interpolation-filters="sRGB">
<feFlood flood-opacity="0" result="BackgroundImageFix"/>
<feColorMatrix in="SourceAlpha" type="matrix" values="0 0 0 0 0 0 0 0 0 0 0 0 0 0 0 0 0 0 127 0" result="hardAlpha"/>
<feOffset dy="4"/>
<feGaussianBlur stdDeviation="2"/>
<feComposite in2="hardAlpha" operator="out"/>
<feColorMatrix type="matrix" values="0 0 0 0 0 0 0 0 0 0 0 0 0 0 0 0 0 0 0.25 0"/>
<feBlend mode="normal" in2="BackgroundImageFix" result="effect1_dropShadow_0_220"/>
<feBlend mode="normal" in="SourceGraphic" in2="effect1_dropShadow_0_220" result="shape"/>
</filter>
</defs>
</svg>
